mastitorrents.com 
http://mastitorrents.com/forums/index.php


Format                           : Matroska
File size                        : 498 MiB
Duration                         : 1h 38mn
Overall bit rate                 : 710 Kbps
Encoded date                     : UTC 2010-07-03 17:12:41
Writing application              : mkvmerge v4.0.0 ('The Stars were mine')
Writing library                  : libebml v1.0.0 + libmatroska v1.0.0

Video

Format                           : AVC
Format/Info                      : Advanced Video Codec
Format profile                   : High@L4.1
Format settings, CABAC           : Yes
Format settings, ReFrames        : 3 frames
Muxing mode                      : Container profile=Unknown@4.1
Codec ID                         : V_MPEG4/ISO/AVC
Duration                         : 1h 38mn
Bit rate                         : 612 Kbps
Width                            : 720 pixels
Height                           : 528 pixels
Display aspect ratio             : 4:3
Frame rate                       : 25.000 fps
Color space                      : YUV
Chroma subsampling               : 4:2:0
Bit depth                        : 8 bits
Scan type                        : Progressive
Bits/(Pixel*Frame)               : 0.064
Stream size                      : 421 MiB (84%)
Title                            : Postarbhai
Writing library                  : x264 core 98 r1649 c54c47d
Color primaries                  : BT.709-5, BT.1361, IEC 61966-2-4, SMPTE RP177
Transfer characteristics         : BT.709-5, BT.1361
Matrix coefficients              : BT.709-5, BT.1361, IEC 61966-2-4 709, SMPTE RP177

Audio

Format                           : MPEG Audio
Format version                   : Version 1
Format profile                   : Layer 3
Mode                             : Joint stereo
Codec ID                         : A_MPEG/L3
Codec ID/Hint                    : MP3
Duration                         : 1h 38mn
Bit rate mode                    : Constant
Bit rate                         : 96.0 Kbps
Channel(s)                       : 2 channels
Sampling rate                    : 32.0 KHz
Stream size                      : 67.4 MiB (14%)
Title                            : Postarbhai
Writing library                  : LAME3.98r
Encoding settings                : -m j -V 4 -q 2 -lowpass 15.1 -b 96